<svg width="311" height="284" viewBox="0 0 311 284" fill="none" xmlns="http://www.w3.org/2000/svg">
<g clip-path="url(#clip0_24_229)">
<path d="M77.9975 227.337L2.25391 283.663" stroke="black" stroke-miterlimit="10"/>
<path d="M90.0744 227.337L25.9869 283.663" stroke="black" stroke-miterlimit="10"/>
<path d="M102.151 227.337L49.7114 283.663" stroke="black" stroke-miterlimit="10"/>
<path d="M114.228 227.337L73.4445 283.663" stroke="black" stroke-miterlimit="10"/>
<path d="M126.305 227.337L97.1775 283.663" stroke="black" stroke-miterlimit="10"/>
<path d="M138.39 227.337L120.902 283.663" stroke="black" stroke-miterlimit="10"/>
<path d="M150.467 227.337L144.635 283.663" stroke="black" stroke-miterlimit="10"/>
<path d="M162.544 227.337L168.368 283.663" stroke="black" stroke-miterlimit="10"/>
<path d="M174.621 227.337L192.101 283.663" stroke="black" stroke-miterlimit="10"/>
<path d="M186.698 227.337L215.826 283.663" stroke="black" stroke-miterlimit="10"/>
<path d="M198.775 227.337L239.559 283.663" stroke="black" stroke-miterlimit="10"/>
<path d="M210.852 227.337L263.291 283.663" stroke="black" stroke-miterlimit="10"/>
<path d="M222.928 227.337L287.024 283.663" stroke="black" stroke-miterlimit="10"/>
<path d="M235.005 227.337L310.749 283.663" stroke="black" stroke-miterlimit="10"/>
</g>
<rect x="26.0015" y="123.249" width="5" height="29" rx="2" fill="black"/>
<path opacity="0.3" d="M183.751 25L32.0015 126.75L183.751 238.499L183.751 25Z" fill="url(#paint0_linear_24_229)"/>
<path d="M34.3101 154C34.8267 154.409 35.4592 154.729 35.8372 155.241C37.1198 156.98 36.0262 159.356 33.849 159.575C32.899 159.671 31.9338 159.59 30.8855 159.59V176.591C31.4954 176.591 32.1077 176.591 32.72 176.591C35.182 176.599 36.0791 177.307 36.5427 179.691C37.654 185.413 38.7426 191.137 39.8463 196.862C42.908 212.746 45.9723 228.628 49.0365 244.509C51.3245 256.37 53.6227 268.228 55.9083 280.088C56.3014 282.124 55.4043 283.637 53.6479 283.957C52.1208 284.236 50.7777 283.078 50.4048 281.147C46.2041 259.375 42.0059 237.604 37.8052 215.833C35.7087 204.968 33.6096 194.105 31.5054 183.242C31.4399 182.907 31.2913 182.59 31.1804 182.265C31.072 182.278 30.9611 182.29 30.8528 182.303C30.8326 182.737 30.7973 183.174 30.7973 183.608C30.7948 203.495 30.7973 243.385 30.7948 263.273C30.7948 263.697 30.8125 264.121 30.7721 264.542C30.6109 266.154 29.4517 267.236 27.9473 267.203C26.4833 267.17 25.3947 266.114 25.2384 264.552C25.2057 264.217 25.2157 263.877 25.2157 263.537C25.2157 243.649 25.2157 203.759 25.2157 183.872C25.2157 183.354 25.2157 182.834 25.2157 182.316C25.0797 182.3 24.9461 182.285 24.81 182.27C24.7017 182.636 24.5631 182.996 24.4925 183.369C20.5615 203.686 16.6304 224.002 12.7069 244.321C10.3357 256.596 7.97703 268.872 5.60831 281.149C5.14464 283.551 3.30259 284.614 1.42525 283.589C0.276174 282.962 -0.207649 281.796 0.0821412 280.205C0.492887 277.961 0.943951 275.727 1.37738 273.485C4.10896 259.345 6.84307 245.205 9.57465 231.062C12.5607 215.594 15.5418 200.127 18.5254 184.659C18.8605 182.917 19.1554 181.166 19.5359 179.434C20.0071 177.282 20.879 176.606 23.0411 176.589C23.7063 176.584 24.3716 176.589 25.125 176.589V159.623C24.4673 159.623 23.8122 159.623 23.1595 159.623C21.1788 159.615 20.0449 158.922 19.7148 157.519C19.3721 156.054 19.9693 154.998 21.7055 154.003C25.9062 154.003 30.1069 154.003 34.3076 154.003L34.3101 154Z" fill="#433554"/>
<defs>
<linearGradient id="paint0_linear_24_229" x1="34.5015" y1="126.749" x2="198.001" y2="126.749" gradientUnits="userSpaceOnUse">
<stop stop-color="white" stop-opacity="0.6"/>
<stop offset="0.86" stop-color="white" stop-opacity="0"/>
</linearGradient>
<clipPath id="clip0_24_229">
<rect width="309" height="57" fill="white" transform="translate(2.00146 227)"/>
</clipPath>
</defs>
</svg>
